<svg width="155" height="36" viewBox="0 0 155 36" fill="none" xmlns="http://www.w3.org/2000/svg">
<g clip-path="url(#clip0_353_2163)" filter="url(#filter0_d_353_2163)">
<mask id="mask0_353_2163" style="mask-type:alpha" maskUnits="userSpaceOnUse" x="3" y="3" width="149" height="30">
<rect x="3" y="3" width="149" height="30" fill="url(#paint0_linear_353_2163)"/>
</mask>
<g mask="url(#mask0_353_2163)">
<rect x="3" y="3" width="149" height="30" fill="url(#paint1_linear_353_2163)"/>
<rect x="4.6" y="4.6" width="145.8" height="26.8" stroke="url(#paint2_linear_353_2163)" stroke-opacity="0.63" stroke-width="3.2"/>
<rect x="4.1" y="4.1" width="146.8" height="27.8" stroke="#141313" stroke-opacity="0.63" stroke-width="2.2"/>
</g>
<path fill-rule="evenodd" clip-rule="evenodd" d="M150.2 4.8H4.8V31.2H150.2V4.8ZM4.8 3H3V4.8V31.2V33H4.8H150.2H152V31.2V4.8V3H150.2H4.8Z" fill="url(#paint3_linear_353_2163)"/>
</g>
<defs>
<filter id="filter0_d_353_2163" x="0" y="0" width="155" height="36" filterUnits="userSpaceOnUse" color-interpolation-filters="sRGB">
<feFlood flood-opacity="0" result="BackgroundImageFix"/>
<feColorMatrix in="SourceAlpha" type="matrix" values="0 0 0 0 0 0 0 0 0 0 0 0 0 0 0 0 0 0 127 0" result="hardAlpha"/>
<feOffset/>
<feGaussianBlur stdDeviation="1.5"/>
<feComposite in2="hardAlpha" operator="out"/>
<feColorMatrix type="matrix" values="0 0 0 0 0 0 0 0 0 0 0 0 0 0 0 0 0 0 1 0"/>
<feBlend mode="normal" in2="BackgroundImageFix" result="effect1_dropShadow_353_2163"/>
<feBlend mode="normal" in="SourceGraphic" in2="effect1_dropShadow_353_2163" result="shape"/>
</filter>
<linearGradient id="paint0_linear_353_2163" x1="77.5" y1="3" x2="77.5" y2="33" gradientUnits="userSpaceOnUse">
<stop stop-color="#6B4A33"/>
<stop offset="1" stop-color="#3B2D21"/>
</linearGradient>
<linearGradient id="paint1_linear_353_2163" x1="77.5" y1="3" x2="77.5" y2="33" gradientUnits="userSpaceOnUse">
<stop stop-color="#1E434F"/>
<stop offset="1" stop-color="#377A89"/>
</linearGradient>
<linearGradient id="paint2_linear_353_2163" x1="77.5" y1="33" x2="77.5" y2="3" gradientUnits="userSpaceOnUse">
<stop stop-color="#211C19"/>
<stop offset="1" stop-color="#96866D"/>
</linearGradient>
<linearGradient id="paint3_linear_353_2163" x1="77.4929" y1="3" x2="77.4929" y2="33" gradientUnits="userSpaceOnUse">
<stop stop-color="#97876D"/>
<stop offset="1" stop-color="#6B5C44"/>
</linearGradient>
<clipPath id="clip0_353_2163">
<rect width="149" height="30" fill="white" transform="translate(3 3)"/>
</clipPath>
</defs>
</svg>
